<?xml version="1.0" encoding="iso-8859-1"?>
<!-- Generator: Adobe Illustrator 19.0.0, SVG Export Plug-In . SVG Version: 6.00 Build 0)  -->
<svg version="1.1" id="Capa_1" xmlns="http://www.w3.org/2000/svg" xmlns:xlink="http://www.w3.org/1999/xlink" x="0px" y="0px"
	 viewBox="0 0 512 512" style="enable-background:new 0 0 512 512;" xml:space="preserve">
<g>
	<g>
		<path d="M256,155.24c-9.64,8.66-18.03,18.69-24.87,29.76h49.74C274.03,173.93,265.64,163.9,256,155.24z"/>
	</g>
</g>
<g>
	<g>
		<path d="M231.13,327c6.84,11.07,15.23,21.1,24.87,29.76c9.64-8.66,18.03-18.69,24.87-29.76H231.13z"/>
	</g>
</g>
<g>
	<g>
		<path d="M211.83,271c0.99,8.95,2.85,17.65,5.51,26h77.32c2.66-8.35,4.52-17.05,5.51-26H211.83z"/>
	</g>
</g>
<g>
	<g>
		<path d="M294.66,215h-77.32c-2.66,8.35-4.52,17.05-5.51,26h88.34C299.18,232.05,297.32,223.35,294.66,215z"/>
	</g>
</g>
<g>
	<g>
		<path d="M231.11,374.53C200.22,344.45,181,302.43,181,256s19.22-88.45,50.11-118.53c3.79-3.69,7.75-7.2,11.88-10.51
			c4.18-3.36,8.52-6.52,13.01-9.46c-26.03-17.07-57.13-27-90.5-27C74.24,90.5,0,164.74,0,256s74.24,165.5,165.5,165.5
			c33.37,0,64.47-9.93,90.5-27c-4.49-2.94-8.83-6.1-13.01-9.46C238.86,381.73,234.9,378.22,231.11,374.53z"/>
	</g>
</g>
<g>
	<g>
		<path d="M346.5,90.5c-33.37,0-64.47,9.93-90.5,27c4.49,2.94,8.83,6.1,13.01,9.46c4.13,3.31,8.09,6.82,11.88,10.51
			C311.78,167.55,331,209.57,331,256s-19.22,88.45-50.11,118.53c-3.79,3.69-7.75,7.2-11.88,10.51c-4.18,3.36-8.52,6.52-13.01,9.46
			c26.03,17.07,57.13,27,90.5,27c91.26,0,165.5-74.24,165.5-165.5S437.76,90.5,346.5,90.5z"/>
	</g>
</g>
<g>
</g>
<g>
</g>
<g>
</g>
<g>
</g>
<g>
</g>
<g>
</g>
<g>
</g>
<g>
</g>
<g>
</g>
<g>
</g>
<g>
</g>
<g>
</g>
<g>
</g>
<g>
</g>
<g>
</g>
</svg>
