<?xml version="1.0" encoding="iso-8859-1"?>
<!-- Generator: Adobe Illustrator 19.0.0, SVG Export Plug-In . SVG Version: 6.00 Build 0)  -->
<svg version="1.1" id="Capa_1" xmlns="http://www.w3.org/2000/svg" xmlns:xlink="http://www.w3.org/1999/xlink" x="0px" y="0px"
	 viewBox="0 0 512 512" style="enable-background:new 0 0 512 512;" xml:space="preserve">
<g>
	<g>
		<path d="M306.27,41.823l-3.248-1.093c-1.293-0.431-11.229-3.579-24.613-3.579c-2.877,0-5.915,0.14-9.053,0.491
			c-4.451,0.501-9.314,1.424-14.327,3.018l103.236,84.503l-19.46,22.964l-100.128-81.54l-4.271-4.04
			c-1.594-0.471-4.02-1.073-6.928-1.374c-0.932-0.1-1.895-0.17-2.907-0.19c-1.454-0.03-2.988,0.03-4.562,0.211
			c-5.504,0.642-10.387,2.707-14.728,6.236c-2.817,2.286-5.394,5.183-7.77,8.702l115.638,90.639l-20.072,22.398L171.342,93.065
			c-5.554-1.835-16.924-4.06-25.155,0.581c-4.602,2.597-8.221,7.269-10.798,13.986l1.323,0.581l5.514,4.943l130.316,98.228
			l-20.072,22.398l-131.93-99.672c-5.474-2.547-17.104-2.667-27.742-1.474c-6.316,2.226-12.211,5.635-17.345,10.096l-56.947,49.478
			C6.747,202.427,0,217.225,0,232.815v44.966c0,9.655,12.372,22.333,20.726,22.333C15.182,306.871,0,307.801,0,328.161v14.648
			c0,11.059,3.9,21.846,10.968,30.348l51.393,61.849c21.044,25.325,51.994,39.843,84.919,39.843h199.925
			c11.921,0,23.511-2.436,34.439-7.229L512,410.313V222.581L306.27,41.823z M217.551,351.351h-81.019l-37.206-47.342
			c-7.082-7.905-13.341-5.705-16.439-7.88c10.695-2.03,12.439-11.76,12.439-18.347c0-4.792,0-9.585,0-14.377
			c0-5.569,0.19-11.756,3.511-16.49c3.563-5.079,10.23-8.021,16.184-9.001c6.482-1.067,13.164-0.387,19.687-0.236
			c5.615,0.13,10.948,2.326,15.019,6.186l83.405,68.347c4.502,4.271,7.088,10.266,7.088,16.472
			C240.219,341.185,230.053,351.351,217.551,351.351z"/>
	</g>
</g>
<g>
</g>
<g>
</g>
<g>
</g>
<g>
</g>
<g>
</g>
<g>
</g>
<g>
</g>
<g>
</g>
<g>
</g>
<g>
</g>
<g>
</g>
<g>
</g>
<g>
</g>
<g>
</g>
<g>
</g>
</svg>
