<?xml version="1.0" encoding="iso-8859-1"?>
<!-- Generator: Adobe Illustrator 19.0.0, SVG Export Plug-In . SVG Version: 6.00 Build 0)  -->
<svg version="1.1" id="Capa_1" xmlns="http://www.w3.org/2000/svg" xmlns:xlink="http://www.w3.org/1999/xlink" x="0px" y="0px"
	 viewBox="0 0 512 512" style="enable-background:new 0 0 512 512;" xml:space="preserve">
<g>
	<g>
		<path d="M490.991,130.991c-19.51-11.768-44.03-6.999-54.661,10.627l-43.08,71.432c-0.739,1.226-1.813,1.691-2.583,1.866
			c-0.771,0.175-1.94,0.217-3.136-0.569c-1.375-0.905-2.066-2.535-1.76-4.154l24.085-127.26c2.305-12.179-0.644-24.318-8.091-33.306
			c-7.164-8.647-17.967-13.746-29.814-14.12c-23.698-3.731-46.311,12.081-50.801,35.815l-22.134,116.95
			c-0.259,1.365-2.444,3.177-3.834,3.177c-1.918,0-3.478-1.56-3.478-3.479V67.087c0-24.626-20.034-44.659-44.659-44.659
			s-44.659,20.033-44.659,44.659v126.304c0,1.22-0.664,2.344-1.733,2.933c-1.135,0.625-2.168,0.444-2.835,0.185
			c-0.667-0.262-1.547-0.831-1.957-2.063L159.584,85.219c-3.759-11.321-11.703-20.5-22.366-25.847
			c-10.665-5.346-22.771-6.221-34.092-2.461c-11.321,3.76-20.5,11.703-25.847,22.367c-5.294,10.561-6.203,22.536-2.568,33.762
			l38.437,134.468l3.663,13.922l-39.612-28.675c-8.936-7.595-21.29-10.925-34.048-9.14c-11.875,1.66-23.086,7.56-30.757,16.182
			c-7.684,8.637-12.198,20.916-12.387,33.691c-0.204,13.862,4.817,26.385,13.738,34.32l71.02,63.638l37.063,38.189l33.03,79.936
			h243.83l20.197-105.247c7.127-37.144,20.175-72.676,38.781-105.608l49.693-94.864
			C517.603,166.269,510.337,142.659,490.991,130.991z"/>
	</g>
</g>
<g>
</g>
<g>
</g>
<g>
</g>
<g>
</g>
<g>
</g>
<g>
</g>
<g>
</g>
<g>
</g>
<g>
</g>
<g>
</g>
<g>
</g>
<g>
</g>
<g>
</g>
<g>
</g>
<g>
</g>
</svg>
