<?xml version="1.0" encoding="iso-8859-1"?>
<!-- Generator: Adobe Illustrator 19.0.0, SVG Export Plug-In . SVG Version: 6.00 Build 0)  -->
<svg version="1.1" id="Capa_1" xmlns="http://www.w3.org/2000/svg" xmlns:xlink="http://www.w3.org/1999/xlink" x="0px" y="0px"
	 viewBox="0 0 512.002 512.002" style="enable-background:new 0 0 512.002 512.002;" xml:space="preserve">
<g>
	<g>
		<path d="M256.031,180.011c-41.9,0-75.99,34.089-75.99,75.99c0,41.9,34.089,75.99,75.99,75.99c41.9,0,75.99-34.089,75.99-75.99
			C332.021,214.1,297.933,180.011,256.031,180.011z M256.031,300.28c-24.416,0-44.279-19.863-44.279-44.279
			c0-24.416,19.863-44.279,44.279-44.279s44.279,19.863,44.279,44.279C300.311,280.417,280.447,300.28,256.031,300.28z"/>
	</g>
</g>
<g>
	<g>
		<path d="M256.031,241.717c-7.876,0-14.283,6.407-14.283,14.283c0,7.876,6.407,14.283,14.283,14.283
			c7.876,0,14.283-6.407,14.283-14.283C270.316,248.125,263.907,241.717,256.031,241.717z"/>
	</g>
</g>
<g>
	<g>
		<path d="M506.816,247.909c-0.886-1.382-22.159-34.22-63.508-67.137c-54.86-43.675-119.448-66.76-186.78-66.76
			c-67.315,0-132.062,23.076-187.241,66.732c-41.583,32.9-63.099,65.716-63.994,67.096L0,256.001l5.293,8.161
			c0.895,1.381,22.411,34.196,63.994,67.096c55.179,43.656,119.925,66.732,187.241,66.732c67.332,0,131.92-23.086,186.78-66.761
			c41.349-32.918,62.623-65.756,63.508-67.137l5.185-8.092L506.816,247.909z M256.031,361.987
			c-58.44,0-105.986-47.546-105.986-105.986s47.546-105.986,105.986-105.986s105.986,47.546,105.986,105.986
			S314.473,361.987,256.031,361.987z"/>
	</g>
</g>
<g>
</g>
<g>
</g>
<g>
</g>
<g>
</g>
<g>
</g>
<g>
</g>
<g>
</g>
<g>
</g>
<g>
</g>
<g>
</g>
<g>
</g>
<g>
</g>
<g>
</g>
<g>
</g>
<g>
</g>
</svg>
