<?xml version="1.0" encoding="iso-8859-1"?>
<!-- Generator: Adobe Illustrator 19.0.0, SVG Export Plug-In . SVG Version: 6.00 Build 0)  -->
<svg version="1.1" id="Capa_1" xmlns="http://www.w3.org/2000/svg" xmlns:xlink="http://www.w3.org/1999/xlink" x="0px" y="0px"
	 viewBox="0 0 511.999 511.999" style="enable-background:new 0 0 511.999 511.999;" xml:space="preserve">
<g>
	<g>
		<path d="M327.534,308.592V71.535C327.534,32.09,295.443,0,256,0c-39.444,0-71.535,32.09-71.535,71.535v237.06
			c-26.134,21.025-41.954,52.787-42.72,86.479c-0.696,30.606,10.703,59.685,32.097,81.878
			c21.371,22.169,49.972,34.611,80.536,35.037c0.548,0.007,1.092,0.011,1.639,0.011c30.234-0.001,58.67-11.65,80.228-32.91
			c21.951-21.648,34.039-50.547,34.039-81.375C370.284,362.963,354.44,330.212,327.534,308.592z M297.535,200.751h-83.07V71.535
			C214.465,48.632,233.097,29.999,256,29.999c22.903,0,41.535,18.633,41.535,41.535V200.751z"/>
	</g>
</g>
<g>
</g>
<g>
</g>
<g>
</g>
<g>
</g>
<g>
</g>
<g>
</g>
<g>
</g>
<g>
</g>
<g>
</g>
<g>
</g>
<g>
</g>
<g>
</g>
<g>
</g>
<g>
</g>
<g>
</g>
</svg>
