<?xml version="1.0" encoding="iso-8859-1"?>
<!-- Generator: Adobe Illustrator 19.0.0, SVG Export Plug-In . SVG Version: 6.00 Build 0)  -->
<svg version="1.1" id="Capa_1" xmlns="http://www.w3.org/2000/svg" xmlns:xlink="http://www.w3.org/1999/xlink" x="0px" y="0px"
	 viewBox="0 0 512 512" style="enable-background:new 0 0 512 512;" xml:space="preserve">
<g>
	<g>
		<polygon points="449.33,173.62 449.33,102.67 349.17,102.67 349.17,175.42 319.17,175.42 319.17,102.67 271,102.67 271,175.42 
			241,175.42 241,102.67 192.83,102.67 192.83,175.42 162.83,175.42 162.83,102.67 62.67,102.67 62.67,173.62 136,173.62 
			136,203.62 62.67,203.62 62.67,241 136,241 136,271 62.67,271 62.67,308.38 136,308.38 136,338.38 62.67,338.38 62.67,409.33 
			162.83,409.33 162.83,336.58 192.83,336.58 192.83,409.33 241,409.33 241,336.58 271,336.58 271,409.33 319.17,409.33 
			319.17,336.58 349.17,336.58 349.17,409.33 449.33,409.33 449.33,338.38 376,338.38 376,308.38 449.33,308.38 449.33,271 376,271 
			376,241 449.33,241 449.33,203.62 376,203.62 376,173.62 		"/>
	</g>
</g>
<g>
	<g>
		<rect y="173.62" width="62.67" height="30"/>
	</g>
</g>
<g>
	<g>
		<rect y="241" width="62.67" height="30"/>
	</g>
</g>
<g>
	<g>
		<rect y="308.38" width="62.67" height="30"/>
	</g>
</g>
<g>
	<g>
		<rect x="319.17" y="39.42" width="30" height="63.25"/>
	</g>
</g>
<g>
	<g>
		<rect x="241" y="39.42" width="30" height="63.25"/>
	</g>
</g>
<g>
	<g>
		<rect x="162.83" y="39.42" width="30" height="63.25"/>
	</g>
</g>
<g>
	<g>
		<rect x="319.17" y="409.33" width="30" height="63.25"/>
	</g>
</g>
<g>
	<g>
		<rect x="241" y="409.33" width="30" height="63.25"/>
	</g>
</g>
<g>
	<g>
		<rect x="162.83" y="409.33" width="30" height="63.25"/>
	</g>
</g>
<g>
	<g>
		<rect x="449.33" y="173.62" width="62.67" height="30"/>
	</g>
</g>
<g>
	<g>
		<rect x="449.33" y="241" width="62.67" height="30"/>
	</g>
</g>
<g>
	<g>
		<rect x="449.33" y="308.38" width="62.67" height="30"/>
	</g>
</g>
<g>
</g>
<g>
</g>
<g>
</g>
<g>
</g>
<g>
</g>
<g>
</g>
<g>
</g>
<g>
</g>
<g>
</g>
<g>
</g>
<g>
</g>
<g>
</g>
<g>
</g>
<g>
</g>
<g>
</g>
</svg>
