<?xml version="1.0" encoding="iso-8859-1"?>
<!-- Generator: Adobe Illustrator 19.0.0, SVG Export Plug-In . SVG Version: 6.00 Build 0)  -->
<svg version="1.1" id="Capa_1" xmlns="http://www.w3.org/2000/svg" xmlns:xlink="http://www.w3.org/1999/xlink" x="0px" y="0px"
	 viewBox="0 0 512 512" style="enable-background:new 0 0 512 512;" xml:space="preserve">
<g>
	<g>
		
			<rect x="314.041" y="38.972" transform="matrix(0.7071 -0.7071 0.7071 0.7071 -1.0545 299.5845)" width="94.125" height="224.186"/>
	</g>
</g>
<g>
	<g>
		<path d="M255.251,154.175L66.358,343.068c-17.917,17.915-24.738,43.55-18.618,67.576L0.304,458.08l53.783,53.783l47.436-47.436
			c24.027,6.121,49.661-0.704,67.575-18.618l188.894-188.894L255.251,154.175z"/>
	</g>
</g>
<g>
	<g>
		<path d="M493.661,19.446l-0.94-0.939c-11.846-11.847-27.595-18.37-44.348-18.37c-0.001,0,0,0-0.001,0
			c-16.752,0-32.503,6.525-44.347,18.369L370.772,51.76l89.636,89.635l33.252-33.252C518.114,83.69,518.114,43.9,493.661,19.446z"/>
	</g>
</g>
<g>
	<g>
		<path d="M164.66,115.623c-5.728-25.031-25.471-44.774-50.502-50.502c-0.001,0-0.002,0-0.004-0.001V31.458H84.165v33.665
			c-25.029,5.729-44.77,25.471-50.498,50.501H0v29.989h33.668c5.728,25.03,25.469,44.772,50.498,50.501v33.665h29.989v-33.664
			c0.001,0,0.003,0,0.004-0.001c25.031-5.728,44.774-25.471,50.502-50.502h33.662v-29.988H164.66z M99.164,147.822
			c-9.507,0-17.204-7.707-17.204-17.204s7.697-17.204,17.204-17.204c9.497,0,17.194,7.707,17.194,17.204
			S108.66,147.822,99.164,147.822z"/>
	</g>
</g>
<g>
</g>
<g>
</g>
<g>
</g>
<g>
</g>
<g>
</g>
<g>
</g>
<g>
</g>
<g>
</g>
<g>
</g>
<g>
</g>
<g>
</g>
<g>
</g>
<g>
</g>
<g>
</g>
<g>
</g>
</svg>
