<?xml version="1.0" encoding="iso-8859-1"?>
<!-- Generator: Adobe Illustrator 19.0.0, SVG Export Plug-In . SVG Version: 6.00 Build 0)  -->
<svg version="1.1" id="Capa_1" xmlns="http://www.w3.org/2000/svg" xmlns:xlink="http://www.w3.org/1999/xlink" x="0px" y="0px"
	 viewBox="0 0 512 512" style="enable-background:new 0 0 512 512;" xml:space="preserve">
<g>
	<g>
		<path d="M256,184.685c-7.504,0-13.609,6.105-13.609,13.609c0,7.505,6.105,13.61,13.609,13.61c7.504,0,13.609-6.105,13.609-13.61
			S263.504,184.685,256,184.685z"/>
	</g>
</g>
<g>
	<g>
		<polygon points="133.517,377.901 133.517,443.27 178.45,443.27 178.45,512 333.55,512 333.55,443.27 378.483,443.27 
			378.483,377.901 		"/>
	</g>
</g>
<g>
	<g>
		<path d="M271.311,0v156.798c16.865,6.243,28.921,22.487,28.921,41.496c0,24.389-19.842,44.232-44.232,44.232
			c-24.39,0-44.232-19.842-44.232-44.232c0-19.009,12.055-35.253,28.921-41.496V0L111.866,249.915l28.728,20.683
			c23.704,17.067,37.856,44.695,37.856,73.904v2.777h155.1v-2.777c0-29.209,14.152-56.837,37.856-73.903l28.728-20.683L271.311,0z"
			/>
	</g>
</g>
<g>
</g>
<g>
</g>
<g>
</g>
<g>
</g>
<g>
</g>
<g>
</g>
<g>
</g>
<g>
</g>
<g>
</g>
<g>
</g>
<g>
</g>
<g>
</g>
<g>
</g>
<g>
</g>
<g>
</g>
</svg>
