<?xml version="1.0" encoding="iso-8859-1"?>
<!-- Generator: Adobe Illustrator 19.0.0, SVG Export Plug-In . SVG Version: 6.00 Build 0)  -->
<svg version="1.1" id="Capa_1" xmlns="http://www.w3.org/2000/svg" xmlns:xlink="http://www.w3.org/1999/xlink" x="0px" y="0px"
	 viewBox="0 0 512 512" style="enable-background:new 0 0 512 512;" xml:space="preserve">
<g>
	<g>
		<path d="M493.635,19.32l-0.939-0.94C480.844,6.528,465.085,0,448.324,0c-0.001,0,0,0-0.001,0
			c-16.761,0-32.519,6.528-44.371,18.379L370.68,51.65l89.685,89.685l33.269-33.27C518.101,83.599,518.101,43.787,493.635,19.32z"/>
	</g>
</g>
<g>
	<g>
		
			<rect x="313.918" y="38.852" transform="matrix(0.7071 -0.7071 0.7071 0.7071 -1.0402 299.498)" width="94.175" height="224.305"/>
	</g>
</g>
<g>
	<g>
		<path d="M255.099,154.121L66.105,343.116c-17.926,17.925-24.751,43.573-18.628,67.611L0.016,458.188L53.828,512l47.461-47.461
			c24.039,6.123,49.685-0.703,67.611-18.628l188.995-188.994L255.099,154.121z"/>
	</g>
</g>
<g>
</g>
<g>
</g>
<g>
</g>
<g>
</g>
<g>
</g>
<g>
</g>
<g>
</g>
<g>
</g>
<g>
</g>
<g>
</g>
<g>
</g>
<g>
</g>
<g>
</g>
<g>
</g>
<g>
</g>
</svg>
