<?xml version="1.0" encoding="iso-8859-1"?>
<!-- Generator: Adobe Illustrator 19.0.0, SVG Export Plug-In . SVG Version: 6.00 Build 0)  -->
<svg version="1.1" id="Capa_1" xmlns="http://www.w3.org/2000/svg" xmlns:xlink="http://www.w3.org/1999/xlink" x="0px" y="0px"
	 viewBox="0 0 512 512" style="enable-background:new 0 0 512 512;" xml:space="preserve">
<g>
	<g>
		<path d="M256.04,0c-53.97,0-97.72,43.75-97.72,97.72c0,39.38,23.29,73.31,56.84,88.78c12.44,5.73,26.29,8.93,40.88,8.93
			c14.59,0,28.44-3.2,40.87-8.93c33.56-15.47,56.84-49.4,56.84-88.78C353.75,43.75,310.01,0,256.04,0z"/>
	</g>
</g>
<g>
	<g>
		<rect y="300.9" width="512" height="130.83"/>
	</g>
</g>
<g>
	<g>
		<rect x="21.22" y="461.73" width="469.63" height="50.27"/>
	</g>
</g>
<g>
	<g>
		<path d="M311.84,212.66c-4.07,1.99-8.23,3.74-12.48,5.27c-5.42,1.95-10.97,3.53-16.64,4.72c-8.67,1.84-17.6,2.78-26.68,2.78
			c-9.08,0-18.01-0.94-26.69-2.79c-5.67-1.18-11.22-2.76-16.64-4.71c-4.26-1.53-8.42-3.29-12.48-5.27l-6.08,58.24h123.78
			L311.84,212.66z"/>
	</g>
</g>
<g>
</g>
<g>
</g>
<g>
</g>
<g>
</g>
<g>
</g>
<g>
</g>
<g>
</g>
<g>
</g>
<g>
</g>
<g>
</g>
<g>
</g>
<g>
</g>
<g>
</g>
<g>
</g>
<g>
</g>
</svg>
