<?xml version="1.0" encoding="iso-8859-1"?>
<!-- Generator: Adobe Illustrator 19.0.0, SVG Export Plug-In . SVG Version: 6.00 Build 0)  -->
<svg version="1.1" id="Capa_1" xmlns="http://www.w3.org/2000/svg" xmlns:xlink="http://www.w3.org/1999/xlink" x="0px" y="0px"
	 viewBox="0 0 512 512" style="enable-background:new 0 0 512 512;" xml:space="preserve">
<g>
	<g>
		<path d="M235.798,130.32L130.371,235.802l145.83,145.879L381.627,276.2L235.798,130.32z M192.684,277.094L171.591,256
			l21.093-21.093L213.777,256L192.684,277.094z M245.981,200.833l21.093,21.093l-21.093,21.093l-21.094-21.093L245.981,200.833z
			 M258.63,318.632l-21.093-21.093l21.093-21.093l21.093,21.093L258.63,318.632z M279.724,252.294l21.093-21.093l21.093,21.093
			l-21.093,21.093L279.724,252.294z"/>
	</g>
</g>
<g>
	<g>
		<path d="M109.166,257.018l-84.783,84.827c-32.334,32.351-32.334,84.989,0,117.34l28.477,28.491
			C68.536,503.361,89.383,512,111.56,512c22.176,0,43.022-8.638,58.7-24.323l84.734-84.779L109.166,257.018z M71.719,427.134
			l-21.093-21.093l21.093-21.093l21.094,21.093L71.719,427.134z M113.906,330.356L135,351.449l-21.093,21.093l-21.093-21.092
			L113.906,330.356z M127,448.228l-21.093-21.093L127,406.042l21.093,21.093L127,448.228z M154.264,372.544l21.093-21.093
			l21.093,21.093l-21.093,21.093L154.264,372.544z"/>
	</g>
</g>
<g>
	<g>
		<path d="M487.617,52.815L459.14,24.324C443.464,8.638,422.617,0,400.44,0s-43.022,8.638-58.7,24.323l-84.736,84.78l145.829,145.88
			l84.784-84.828C519.951,137.803,519.951,85.165,487.617,52.815z M336.582,158.529l-21.093-21.093l21.093-21.093l21.093,21.093
			L336.582,158.529z M378.769,65.365l21.093,21.093l-21.093,21.093l-21.093-21.093L378.769,65.365z M394.206,179.622l-21.094-21.093
			l21.094-21.093l21.093,21.093L394.206,179.622z M436.393,122.991L415.3,101.897l21.093-21.094l21.093,21.093L436.393,122.991z"/>
	</g>
</g>
<g>
</g>
<g>
</g>
<g>
</g>
<g>
</g>
<g>
</g>
<g>
</g>
<g>
</g>
<g>
</g>
<g>
</g>
<g>
</g>
<g>
</g>
<g>
</g>
<g>
</g>
<g>
</g>
<g>
</g>
</svg>
