<?xml version="1.0" encoding="iso-8859-1"?>
<!-- Generator: Adobe Illustrator 19.0.0, SVG Export Plug-In . SVG Version: 6.00 Build 0)  -->
<svg version="1.1" id="Capa_1" xmlns="http://www.w3.org/2000/svg" xmlns:xlink="http://www.w3.org/1999/xlink" x="0px" y="0px"
	 viewBox="0 0 512 512" style="enable-background:new 0 0 512 512;" xml:space="preserve">
<g>
	<g>
		<polygon points="185.359,117.346 117.395,185.31 178.24,246.155 245.991,177.977 		"/>
	</g>
</g>
<g>
	<g>
		<polygon points="267.208,199.194 199.457,267.372 444.037,511.951 512,443.987 		"/>
	</g>
</g>
<g>
	<g>
		<rect x="71.321" y="47.815" transform="matrix(0.7071 -0.7071 0.7071 0.7071 -35.716 86.3072)" width="30.006" height="76.902"/>
	</g>
</g>
<g>
	<g>
		<polygon points="169.236,0.049 167.082,76.922 197.076,77.763 199.23,0.049 		"/>
	</g>
</g>
<g>
	<g>
		<rect x="240.5" y="73.765" transform="matrix(0.7071 -0.7071 0.7071 0.7071 18.7817 222.8789)" width="75.858" height="30.006"/>
	</g>
</g>
<g>
	<g>
		<polygon points="76.972,167.031 0.101,169.185 0,199.179 77.813,197.025 		"/>
	</g>
</g>
<g>
	<g>
		
			<rect x="50.893" y="263.38" transform="matrix(0.7071 -0.7071 0.7071 0.7071 -170.8307 144.343)" width="75.858" height="30.006"/>
	</g>
</g>
<g>
</g>
<g>
</g>
<g>
</g>
<g>
</g>
<g>
</g>
<g>
</g>
<g>
</g>
<g>
</g>
<g>
</g>
<g>
</g>
<g>
</g>
<g>
</g>
<g>
</g>
<g>
</g>
<g>
</g>
</svg>
