<?xml version="1.0" encoding="iso-8859-1"?>
<!-- Generator: Adobe Illustrator 19.0.0, SVG Export Plug-In . SVG Version: 6.00 Build 0)  -->
<svg version="1.1" id="Capa_1" xmlns="http://www.w3.org/2000/svg" xmlns:xlink="http://www.w3.org/1999/xlink" x="0px" y="0px"
	 viewBox="0 0 512 512" style="enable-background:new 0 0 512 512;" xml:space="preserve">
<g>
	<g>
		<path d="M327.073,269.573c-1.12-5.721-2.751-11.323-4.861-16.704c-1.961-4.991-4.341-9.792-7.122-14.324
			c-8.212-13.463-19.885-24.586-34.399-31.418c-4.961-2.341-10.253-4.171-15.844-5.411c-4.561-1.03-9.312-1.66-14.264-1.87
			c-0.54-0.02-1.07-0.04-1.61-0.05c-0.476-0.009-0.945-0.011-1.419-0.018c-0.064-0.001-0.128-0.004-0.191-0.004
			c-0.27-0.002-0.541-0.018-0.81-0.018c-0.37,0-0.74,0-1.11,0.01c0,0,0,0.01-0.01,0.01c-4.591,0.05-9.162,0.42-13.693,1.11v-0.01
			v-15.454c0-2.591-0.09-5.221-0.26-7.802l-29.938,2.031c0.13,1.911,0.19,3.851,0.19,5.771v23.656h2c-0.06,0.02-0.12,0.05-0.18,0.08
			c-1.29,0.57-2.561,1.17-3.831,1.79c-3.161,1.55-6.242,3.251-9.242,5.091c-1.8,1.1-3.571,2.251-5.301,3.451
			c-0.58,0.4-1.15,0.8-1.72,1.21c-21.966,15.804-30.728,38.51-46.852,59.195c-20.225,25.927-51.343,38.61-82.231,47.252
			c17.985,47.542,84.802,66.997,128.613,68.047c1.58,0.04,3.161,0.06,4.751,0.06c5.881,0,11.883-0.26,17.935-0.8
			c1.35-0.12,2.701-0.25,4.051-0.4c20.605-2.251,41.621-7.752,60.225-17.294c1.45-0.75,2.881-1.51,4.301-2.301
			c2.12-1.19,4.211-2.431,6.262-3.731c1.36-0.87,2.711-1.76,4.041-2.671c1.32-0.91,2.631-1.85,3.921-2.831
			c2.581-1.93,5.081-3.971,7.482-6.122c0.45-0.4,0.9-0.81,1.34-1.22c0.89-0.83,1.76-1.66,2.631-2.511c0.43-0.43,0.85-0.86,1.28-1.29
			c7.342-7.502,13.623-16.164,18.475-26.077C328.744,309.514,330.824,288.838,327.073,269.573z"/>
	</g>
</g>
<g>
	<g>
		<path d="M374.015,70.723l-4.351,4.181c-21.655,20.825-45.011,44.701-67.607,67.797c-9.752,9.973-19.665,20.105-29.447,29.998
			c5.501,1.3,10.853,3.011,16.014,5.131c4.871,2,9.582,4.361,14.104,7.052c12.883,7.692,24.206,18.145,33.358,31.008
			c1.88,2.641,3.661,5.371,5.351,8.212c0.99,1.66,1.93,3.341,2.841,5.041c2.561,4.831,4.791,9.803,6.682,14.884
			c15.944-17.234,35.549-38.64,55.714-60.655c32.528-35.499,66.157-72.208,80.74-87.312L512,70.603L374.015,70.723z"/>
	</g>
</g>
<g>
	<g>
		<path d="M114.619,70.673c-11.753,0.02-23.356,1.82-34.499,5.371l9.112,28.587c8.202-2.611,16.754-3.941,25.416-3.951
			L114.619,70.673z"/>
	</g>
</g>
<g>
	<g>
		<path d="M6.932,146.232c-4.031,10.993-6.322,22.516-6.822,34.239l29.978,1.29c0.37-8.642,2.061-17.124,5.021-25.216L6.932,146.232
			z"/>
	</g>
</g>
<g>
	<g>
		<path d="M48.892,91.578c-9.552,6.732-18.005,14.844-25.136,24.106l23.786,18.295c5.291-6.872,11.553-12.883,18.635-17.875
			L48.892,91.578z"/>
	</g>
</g>
<g>
	<g>
		<path d="M148.888,75.214l-8.392,28.807c8.272,2.411,16.124,6.072,23.336,10.893l16.674-24.946
			C170.733,83.436,160.101,78.475,148.888,75.214z"/>
	</g>
</g>
<g>
	<g>
		<path d="M206.222,113.454l-23.336,18.865c5.461,6.752,9.832,14.244,12.993,22.256l27.917-11.013
			C219.516,132.709,213.604,122.576,206.222,113.454z"/>
	</g>
</g>
<g>
	<g>
		<rect y="211.554" width="30.008" height="30.448"/>
	</g>
</g>
<g>
	<g>
		<path d="M48.792,379.671l-23.356,18.845c7.352,9.102,15.994,17.014,25.697,23.516l16.704-24.926
			C60.645,392.285,54.234,386.423,48.792,379.671z"/>
	</g>
</g>
<g>
	<g>
		<path d="M35.119,355.525c-2.741-7.452-4.391-15.254-4.921-23.206l-5.812,0.39L0.26,334.32c0.78,11.703,3.351,23.166,7.642,34.069
			l27.917-10.983C35.579,356.786,35.339,356.155,35.119,355.525z"/>
	</g>
</g>
<g>
	<g>
		<polygon points="0,272.444 0,302.892 29.748,302.892 30.008,302.892 30.008,302.822 30.008,272.444 		"/>
	</g>
</g>
<g>
	<g>
		<path d="M165.642,395.906c-7.092,5.011-14.844,8.882-23.046,11.503l4.491,14.034l4.651,14.544
			c8.502-2.711,16.644-6.422,24.296-11.043c2.361-1.42,4.671-2.931,6.922-4.521L165.642,395.906z"/>
	</g>
</g>
<g>
	<g>
		<path d="M114.739,411.389c-1.71,0-3.411-0.05-5.101-0.16c-6.272-0.37-12.463-1.45-18.485-3.211l-8.412,28.807
			c10.373,3.031,21.135,4.571,31.998,4.571h2.481V413.85v-2.461H114.739z"/>
	</g>
</g>
<g>
</g>
<g>
</g>
<g>
</g>
<g>
</g>
<g>
</g>
<g>
</g>
<g>
</g>
<g>
</g>
<g>
</g>
<g>
</g>
<g>
</g>
<g>
</g>
<g>
</g>
<g>
</g>
<g>
</g>
</svg>
