<?xml version="1.0" encoding="iso-8859-1"?>
<!-- Generator: Adobe Illustrator 19.0.0, SVG Export Plug-In . SVG Version: 6.00 Build 0)  -->
<svg version="1.1" id="Capa_1" xmlns="http://www.w3.org/2000/svg" xmlns:xlink="http://www.w3.org/1999/xlink" x="0px" y="0px"
	 viewBox="0 0 512 512" style="enable-background:new 0 0 512 512;" xml:space="preserve">
<g>
	<g>
		<path d="M395.719,0H163.126L78.869,90.749c-11.604,12.094-17.996,27.969-17.996,44.724v51.446l36.341-49.986l24.278,17.646
			l-57.858,79.585c-3.681,5.792-3.671,13.224,0.04,19.016c3.181,4.952,8.383,7.903,14.274,8.103
			c5.902,0.19,11.274-2.411,14.775-7.142l67.641-91.339l24.118,17.846l-67.962,91.839c-6.352,8.583-6.462,20.196-0.29,28.909
			c4.711,6.632,12.084,10.383,20.216,10.383c8.143-0.04,15.475-3.891,20.116-10.583l89.728-129.451l24.668,17.085L78.569,466.708
			c-8.993,12.984-6.042,30.45,6.732,39.753c6.292,4.581,13.984,6.412,21.667,5.152c7.672-1.26,14.385-5.452,18.876-11.804
			L334.54,204.955l24.498,17.336L247.732,379.54l8.393,5.292h50.646c17.235,0,34.071-6.032,47.395-16.975l75.984-62.41
			c9.123-7.492,14.565-18.566,14.925-30.37l6.052-198.513L395.719,0z"/>
	</g>
</g>
<g>
</g>
<g>
</g>
<g>
</g>
<g>
</g>
<g>
</g>
<g>
</g>
<g>
</g>
<g>
</g>
<g>
</g>
<g>
</g>
<g>
</g>
<g>
</g>
<g>
</g>
<g>
</g>
<g>
</g>
</svg>
