<?xml version="1.0" encoding="iso-8859-1"?>
<!-- Generator: Adobe Illustrator 19.0.0, SVG Export Plug-In . SVG Version: 6.00 Build 0)  -->
<svg version="1.1" id="Capa_1" xmlns="http://www.w3.org/2000/svg" xmlns:xlink="http://www.w3.org/1999/xlink" x="0px" y="0px"
	 viewBox="0 0 512.001 512.001" style="enable-background:new 0 0 512.001 512.001;" xml:space="preserve">
<g>
	<g>
		<path d="M299.78,334.111c-14.42,4.13-29.63,6.34-45.34,6.34c-0.65,0-1.28-0.01-1.93-0.02c-13.79-0.16-27.3-1.99-40.3-5.4
			c-0.32,35.82,13.32,69.65,38.41,95.28c1.74,1.77,3.51,3.49,5.33,5.15c26.94-24.62,43.85-60,43.85-99.25
			C299.8,335.511,299.79,334.811,299.78,334.111z"/>
	</g>
</g>
<g>
	<g>
		<path d="M164.9,201.551c-14.48,0-28.43,2.29-41.52,6.53c5.67,23.1,17.45,44.36,34.54,61.82c9.02,9.2,19.12,16.96,30.03,23.13
			c7.76-28.47,22.99-53.86,43.41-73.97C211.73,207.921,189.05,201.551,164.9,201.551z"/>
	</g>
</g>
<g>
	<g>
		<path d="M256,236.991c-19.51,17.85-33.76,41.35-40.12,67.91c11.86,3.51,24.27,5.39,36.98,5.54c0.52,0,1.05,0.01,1.57,0.01
			c14.44,0,28.37-2.28,41.45-6.51C289.42,277.801,275.28,254.641,256,236.991z"/>
	</g>
</g>
<g>
	<g>
		<path d="M348.65,201.561c-0.52,0-1.05-0.01-1.57-0.01c-24.11,0-46.79,6.36-66.43,17.5c20.04,19.74,35.05,44.54,42.93,72.31
			c30.67-18.36,53.5-48.54,62.05-84.26C373.77,203.591,361.36,201.711,348.65,201.561z"/>
	</g>
</g>
<g>
	<g>
		<path d="M243.02,463.941c-4.05-3.31-7.97-6.82-11.74-10.55c-0.71-0.69-1.41-1.39-2.1-2.1c-30.79-31.45-47.47-73-46.97-116.98
			c0.04-3.42,0.18-6.82,0.43-10.19c-16.98-8.2-32.58-19.38-46.16-33.24c-19.56-19.98-33.43-44.04-40.81-70.21
			c-1.42-5.03-2.6-10.15-3.53-15.33c-0.95-5.22-1.64-10.5-2.07-15.84C36.65,216.781,0,272.301,0,336.211
			c0,90.78,73.97,164.64,164.9,164.64c33.61,0,64.91-10.1,91-27.41C251.48,470.501,247.18,467.331,243.02,463.941z"/>
	</g>
</g>
<g>
	<g>
		<path d="M465.03,221.121c-13.58-13.87-29.18-25.05-46.17-33.25c-0.39,5.37-1.04,10.66-1.93,15.87
			c-0.89,5.16-2.02,10.24-3.37,15.22c-12.3,45.2-43.43,82.66-84.33,103.54c0.38,4.52,0.57,9.09,0.57,13.71
			c0,45.82-18.85,87.33-49.21,117.2c-3.73,3.67-7.64,7.17-11.71,10.48c-4.16,3.39-8.49,6.58-12.98,9.55
			c26.25,17.47,57.02,27.03,89.31,27.4c0.64,0.01,1.28,0.02,1.92,0.02c90.05-0.01,163.82-72.62,164.86-162.76
			C512.5,294.121,495.82,252.571,465.03,221.121z"/>
	</g>
</g>
<g>
	<g>
		<path d="M372.33,60.711c-30.78-31.45-71.99-49.05-116.03-49.55c-0.64-0.01-1.28-0.02-1.92-0.02
			c-90.05,0-163.82,72.62-164.86,162.76c-0.06,5.24,0.12,10.45,0.55,15.6c4.74-2.42,9.61-4.62,14.61-6.58
			c4.84-1.9,9.79-3.59,14.85-5.03c14.42-4.13,29.64-6.34,45.37-6.34c33.66,0,64.99,10.13,91.11,27.49
			c26.64-17.7,58.68-27.86,92.99-27.47c13.79,0.16,27.3,1.99,40.3,5.4c5.05,1.32,10.02,2.88,14.9,4.68
			c4.99,1.83,9.88,3.91,14.66,6.22c0.25-3.37,0.39-6.76,0.43-10.18C419.8,133.711,403.12,92.161,372.33,60.711z"/>
	</g>
</g>
<g>
</g>
<g>
</g>
<g>
</g>
<g>
</g>
<g>
</g>
<g>
</g>
<g>
</g>
<g>
</g>
<g>
</g>
<g>
</g>
<g>
</g>
<g>
</g>
<g>
</g>
<g>
</g>
<g>
</g>
</svg>
