<?xml version="1.0" encoding="iso-8859-1"?>
<!-- Generator: Adobe Illustrator 19.0.0, SVG Export Plug-In . SVG Version: 6.00 Build 0)  -->
<svg version="1.1" id="Capa_1" xmlns="http://www.w3.org/2000/svg" xmlns:xlink="http://www.w3.org/1999/xlink" x="0px" y="0px"
	 viewBox="0 0 512 512" style="enable-background:new 0 0 512 512;" xml:space="preserve">
<g>
	<g>
		<polygon points="237.87,336.04 237.87,474.89 347.48,456.37 347.48,330.95 		"/>
	</g>
</g>
<g>
	<g>
		<polygon points="237.87,201.88 237.87,306.02 347.48,300.92 347.48,207.6 		"/>
	</g>
</g>
<g>
	<g>
		<polygon points="91.23,15.99 91.23,68.46 27,68.46 27,160.84 207.87,170.28 207.87,35.7 		"/>
	</g>
</g>
<g>
	<g>
		<polygon points="237.87,40.77 237.87,171.84 347.48,177.56 347.48,59.3 		"/>
	</g>
</g>
<g>
	<g>
		<polygon points="377.48,329.56 377.48,451.3 420.77,443.99 420.77,368.7 487.89,368.7 487.89,324.43 		"/>
	</g>
</g>
<g>
	<g>
		<polygon points="377.48,209.17 377.48,299.53 487.89,294.4 487.89,214.93 		"/>
	</g>
</g>
<g>
	<g>
		<polygon points="420.77,148.53 420.77,71.68 377.48,64.37 377.48,179.13 487.89,184.89 487.89,148.53 		"/>
	</g>
</g>
<g>
	<g>
		<polygon points="27,345.84 27,443.54 91.23,443.54 91.23,499.67 207.87,479.96 207.87,337.44 		"/>
	</g>
</g>
<g>
	<g>
		<polygon points="27,190.88 27,315.81 207.87,307.41 207.87,200.32 		"/>
	</g>
</g>
<g>
	<g>
		<rect x="22.77" width="38.46" height="38.46"/>
	</g>
</g>
<g>
	<g>
		<polygon points="450.77,80.07 450.77,95.7 450.77,118.53 470,118.53 489.23,118.53 489.23,80.07 		"/>
	</g>
</g>
<g>
	<g>
		<polygon points="42,473.54 22.77,473.54 22.77,512 61.23,512 61.23,495.14 61.23,473.54 		"/>
	</g>
</g>
<g>
	<g>
		<rect x="450.77" y="398.7" width="38.46" height="38.46"/>
	</g>
</g>
<g>
</g>
<g>
</g>
<g>
</g>
<g>
</g>
<g>
</g>
<g>
</g>
<g>
</g>
<g>
</g>
<g>
</g>
<g>
</g>
<g>
</g>
<g>
</g>
<g>
</g>
<g>
</g>
<g>
</g>
</svg>
