<?xml version="1.0" encoding="iso-8859-1"?>
<!-- Generator: Adobe Illustrator 19.0.0, SVG Export Plug-In . SVG Version: 6.00 Build 0)  -->
<svg version="1.1" id="Capa_1" xmlns="http://www.w3.org/2000/svg" xmlns:xlink="http://www.w3.org/1999/xlink" x="0px" y="0px"
	 viewBox="0 0 512 512" style="enable-background:new 0 0 512 512;" xml:space="preserve">
<g>
	<g>
		<path d="M165.138,97.251c-6.386-20.264-25.352-35-47.698-35s-41.312,14.736-47.698,35H0v30h69.741
			c6.386,20.264,25.352,35,47.698,35s41.312-14.736,47.698-35H512v-30H165.138z"/>
	</g>
</g>
<g>
	<g>
		<path d="M165.139,384.751c-6.386-20.265-25.353-35.002-47.7-35.002c-22.347,0-41.313,14.737-47.699,35.002H0v30h69.742
			c6.387,20.263,25.352,34.998,47.697,34.998c22.345,0,41.31-14.735,47.697-34.998H512v-30H165.139z"/>
	</g>
</g>
<g>
	<g>
		<path d="M303.698,241.001C297.312,220.737,278.346,206,256,206s-41.312,14.736-47.699,35.001H0v30h208.302
			C214.689,291.264,233.654,306,256,306s41.311-14.736,47.698-34.999H512v-30H303.698z"/>
	</g>
</g>
<g>
</g>
<g>
</g>
<g>
</g>
<g>
</g>
<g>
</g>
<g>
</g>
<g>
</g>
<g>
</g>
<g>
</g>
<g>
</g>
<g>
</g>
<g>
</g>
<g>
</g>
<g>
</g>
<g>
</g>
</svg>
