<?xml version="1.0" encoding="iso-8859-1"?>
<!-- Generator: Adobe Illustrator 19.0.0, SVG Export Plug-In . SVG Version: 6.00 Build 0)  -->
<svg version="1.1" id="Capa_1" xmlns="http://www.w3.org/2000/svg" xmlns:xlink="http://www.w3.org/1999/xlink" x="0px" y="0px"
	 viewBox="0 0 512 512" style="enable-background:new 0 0 512 512;" xml:space="preserve">
<g>
	<g>
		<path d="M256,79c-97.599,0-177,79.402-177,177s79.401,177,177,177s177-79.402,177-177S353.599,79,256,79z"/>
	</g>
</g>
<g>
	<g>
		<rect x="241" width="30" height="56"/>
	</g>
</g>
<g>
	<g>
		<rect x="389.223" y="79.785" transform="matrix(0.7071 -0.7071 0.7071 0.7071 55.1787 322.7828)" width="55.999" height="30"/>
	</g>
</g>
<g>
	<g>
		<rect x="456" y="241" width="56" height="30"/>
	</g>
</g>
<g>
	<g>
		<rect x="402.22" y="389.228" transform="matrix(0.7071 -0.7071 0.7071 0.7071 -172.8235 417.2222)" width="30" height="55.999"/>
	</g>
</g>
<g>
	<g>
		<rect x="241" y="456" width="30" height="56"/>
	</g>
</g>
<g>
	<g>
		<rect x="66.778" y="402.225" transform="matrix(0.7071 -0.7071 0.7071 0.7071 -267.2629 189.22)" width="55.999" height="30"/>
	</g>
</g>
<g>
	<g>
		<rect y="241" width="56" height="30"/>
	</g>
</g>
<g>
	<g>
		<rect x="79.779" y="66.777" transform="matrix(0.7071 -0.7071 0.7071 0.7071 -39.2574 94.7787)" width="30" height="55.999"/>
	</g>
</g>
<g>
</g>
<g>
</g>
<g>
</g>
<g>
</g>
<g>
</g>
<g>
</g>
<g>
</g>
<g>
</g>
<g>
</g>
<g>
</g>
<g>
</g>
<g>
</g>
<g>
</g>
<g>
</g>
<g>
</g>
</svg>
